<svg xmlns="http://www.w3.org/2000/svg" viewBox="0 0 237.82 146.19"><defs><style>.cls-1{fill:#FFF;}</style></defs><path class="cls-1" d="M144.23,34.12c26.44,0,48.64,16.87,54.91,39.68H202C196.94,49.5,174,31.16,146.42,31.16c-20,0-37.49,9.62-47.59,24.15a58.05,58.05,0,0,1,45.4-21.19"/><path class="cls-1" d="M138,84h-7.64a5.1,5.1,0,0,1,1-3,3.64,3.64,0,0,1,2.89-1.1,5.07,5.07,0,0,1,2,.34,2.27,2.27,0,0,1,1.11,1h0A6.45,6.45,0,0,1,138,84m-7.68,3.68h13.36v-.4c0-3.87-.45-6.53-1.47-8.06h0a6.37,6.37,0,0,0-3.08-2.39,13.44,13.44,0,0,0-4.87-.77c-3.27,0-5.8,1.07-7.45,3.23h0a11.85,11.85,0,0,0-2.1,7.4c0,3.46.78,6.13,2.42,7.94s4.09,2.69,7.25,2.69a10.19,10.19,0,0,0,6.64-2,7.13,7.13,0,0,0,2.45-5.83v-.4H138l.13.5a4.4,4.4,0,0,1,.1,1,2.4,2.4,0,0,1,0,.31h0a4.06,4.06,0,0,1-.37,1.27,1.88,1.88,0,0,1-1.08.94,6.14,6.14,0,0,1-2.11.27,5.15,5.15,0,0,1-2.05-.33A5.84,5.84,0,0,1,131,92a8.16,8.16,0,0,1-.66-3.78Z"/><path class="cls-1" d="M153,79.59V75.79h-3.33v-3a1.55,1.55,0,0,0-.38-1,2.62,2.62,0,0,0-1.12-.72,3.82,3.82,0,0,0-.65-.17h-3v6.22h0v3.79h0V93.55a5.11,5.11,0,0,0,.3,1.86,2.76,2.76,0,0,0,1,1.27h0a5.92,5.92,0,0,0,3.25.67h3V92.58l-.3-.14-.08,0h-1.34a1.18,1.18,0,0,1-.48-.08.35.35,0,0,1-.21-.22,1.09,1.09,0,0,1,0-.37V79.59Z"/><path class="cls-1" d="M159.17,75.88a1.71,1.71,0,0,0-.55-.09h-3.47V97.35h4.94V77.25a1.54,1.54,0,0,0-.19-.79,1.31,1.31,0,0,0-.72-.58"/><path class="cls-1" d="M159.87,71a1.4,1.4,0,0,0-.72-.62,1.51,1.51,0,0,0-.44-.1h-3.57v4.35h4.94V71.91a1.69,1.69,0,0,0-.21-.86"/><path class="cls-1" d="M191,80.68a6.13,6.13,0,0,0-1.7-2.85h0l0,0h0a6.35,6.35,0,0,0-2.86-1.34A15.11,15.11,0,0,0,183,76a13.67,13.67,0,0,0-3.1.26,9.07,9.07,0,0,0-3.18,1.46,6.68,6.68,0,0,0-2.75-1.25,15.09,15.09,0,0,0-3.47-.47,13.67,13.67,0,0,0-3.1.26,9.12,9.12,0,0,0-3.23,1.48h0a7.1,7.1,0,0,0-1.39,1.56,8,8,0,0,0-1.37,4.49h0l.08,13.55h5.06v-12a7.81,7.81,0,0,1,.22-2,2.62,2.62,0,0,1,.81-1.41h0a4.68,4.68,0,0,1,2.85-.9l.44,0a3.08,3.08,0,0,1,1.63.57,3.27,3.27,0,0,1,1.13,1.71,6.48,6.48,0,0,1,.25,1.54V97.35H179v-12a7.81,7.81,0,0,1,.22-2,2.62,2.62,0,0,1,.81-1.41h0a4.68,4.68,0,0,1,2.85-.9l.44,0a3.07,3.07,0,0,1,1.63.57,3.26,3.26,0,0,1,1.13,1.71,6.43,6.43,0,0,1,.25,1.54V97.35h5.1V83.8a11.06,11.06,0,0,0-.42-3.12"/><polygon class="cls-1" points="154.61 68.56 156.24 68.56 151.27 59.87 154.61 68.56"/><polygon class="cls-1" points="160.08 69.43 161.06 71.35 181.05 49.89 160.08 69.43"/><path class="cls-1" d="M75.13,97.35h5.36V84.79A2.49,2.49,0,0,1,83,82.26c2.61-.28,3.14-.37,3.14-.37V76.11H82.32s-6.92.36-7.2,9.23c-.22,7,0,12,0,12"/><path class="cls-1" d="M99.39,90.21a2.91,2.91,0,0,1-1.12,2.46,4.45,4.45,0,0,1-2.79.85A3.93,3.93,0,0,1,93.17,93a2.59,2.59,0,0,1-.78-2.15,2.76,2.76,0,0,1,1.42-2.55,26.6,26.6,0,0,1,3.35-1.2q1.75-.58,2.23-.8Zm2.88-12.7a9.41,9.41,0,0,0-5.62-1.41,10.69,10.69,0,0,0-5.79,1.27h0a4.78,4.78,0,0,0-1.79,2.14,4.29,4.29,0,0,0-.57,2.32v.42h4.73v-.42c0-.62.05-.29.15-.67a1.71,1.71,0,0,1,.37-.78,1.67,1.67,0,0,1,.79-.38,6.62,6.62,0,0,1,1.56-.15,5.6,5.6,0,0,1,2.33.36,1.51,1.51,0,0,1,.64.65,2.39,2.39,0,0,1,.22,1.09,1.8,1.8,0,0,1-.55,1.31,4.5,4.5,0,0,1-1.82,1q-3.2.69-4.44,1h0a7.2,7.2,0,0,0-3.68,2,5.06,5.06,0,0,0-1.27,3.53,6.26,6.26,0,0,0,2,4.82A8,8,0,0,0,95,97.35a13.56,13.56,0,0,0,5.25-.85,6.57,6.57,0,0,0,2.66-2,7,7,0,0,0,1.38-3.8V81.84a5.06,5.06,0,0,0-2-4.33"/><path class="cls-1" d="M123.08,80.52a6.19,6.19,0,0,0-1.7-2.87h0l0,0h0a6.33,6.33,0,0,0-2.86-1.36,15,15,0,0,0-3.47-.47,13.51,13.51,0,0,0-3.1.26,9.08,9.08,0,0,0-3.23,1.5h0a7.08,7.08,0,0,0-1.39,1.58,8.12,8.12,0,0,0-1.37,4.53h0L106,97.35h5.06V85.2a8,8,0,0,1,.23-2,2.64,2.64,0,0,1,.81-1.43h0a4.66,4.66,0,0,1,2.85-.91l.44,0a3.09,3.09,0,0,1,1.63.58,3.29,3.29,0,0,1,1.13,1.73,6.6,6.6,0,0,1,.25,1.55V97.35h5.1V83.67a11.28,11.28,0,0,0-.42-3.15"/><path class="cls-1" d="M206.41,84h-7.64a5.1,5.1,0,0,1,1-3,3.64,3.64,0,0,1,2.89-1.1,5.07,5.07,0,0,1,2,.34,2.27,2.27,0,0,1,1.11,1h0a6.45,6.45,0,0,1,.59,2.85m-7.68,3.68h13.36v-.4c0-3.87-.45-6.53-1.47-8.06h0a6.37,6.37,0,0,0-3.08-2.39,13.44,13.44,0,0,0-4.87-.77c-3.27,0-5.8,1.07-7.45,3.23h0a11.85,11.85,0,0,0-2.1,7.4c0,3.46.78,6.13,2.42,7.94s4.09,2.69,7.25,2.69a10.19,10.19,0,0,0,6.64-2,7.13,7.13,0,0,0,2.45-5.83v-.4h-5.49l.13.5a4.4,4.4,0,0,1,.1,1,2.4,2.4,0,0,1,0,.31h0a4.09,4.09,0,0,1-.37,1.27,1.88,1.88,0,0,1-1.08.94,6.15,6.15,0,0,1-2.11.27,5.15,5.15,0,0,1-2.05-.33A5.84,5.84,0,0,1,199.39,92a8.14,8.14,0,0,1-.66-3.78Z"/><path class="cls-1" d="M26,93.95c.47,19.45,16.23,23.53,16.23,23.53C24.44,113.86,26,93.95,26,93.95M43,55.21a4.63,4.63,0,1,1,4.63,4.63A4.63,4.63,0,0,1,43,55.21M75,72.8S63.31,75.59,60.38,93.92c0,0-1.6,9-10.56,9.3-8.7.27-10.64-6.15-10.57-9.8,0,0,.08-6.87,4.59-9.92,4.85-3.28,9.12-7.87,9.43-11.89.37-4.82,0-5.22,0-5.22a3.89,3.89,0,0,1,.87-3.25,10.19,10.19,0,0,0,1.42-1.41h0l.15-.21A10.21,10.21,0,1,0,41.53,63.3h0s2.46,1.67,2.24,4a5.67,5.67,0,0,1-2.24,4s-7,5.19-7.77,6.18-7.4,5.28-8.77,16.6c-2,16.54,10.34,26.1,24.59,26.1,17.69,0,22.63-13.2,22.29-20.46a40,40,0,0,1,0-16.47,24.9,24.9,0,0,1,5.58-8.43C81,71.47,75,72.8,75,72.8"/><path class="cls-1" d="M209.13,73.41h.26c.3,0,.45.12.49.37a2.06,2.06,0,0,0,.19.58h.59a1.78,1.78,0,0,1-.17-.59.7.7,0,0,0-.43-.58v0a.6.6,0,0,0,.49-.55.65.65,0,0,0-.23-.52,1.47,1.47,0,0,0-.82-.17,4.7,4.7,0,0,0-.91.07v2.36h.55Zm0-1.06a1.25,1.25,0,0,1,.3,0c.35,0,.5.14.5.36s-.24.34-.55.34h-.26Zm.36-1.58a2.37,2.37,0,1,0,2.41,2.36,2.38,2.38,0,0,0-2.41-2.36m0,.47a1.83,1.83,0,0,1,1.81,1.9,1.81,1.81,0,0,1-1.8,1.87,1.89,1.89,0,0,1,0-3.77"/></svg>