<svg version="1.1" id="Layer_1" xmlns="http://www.w3.org/2000/svg" xmlns:xlink="http://www.w3.org/1999/xlink" x="0px" y="0px"
	 width="387.438px" height="66.284px" viewBox="0 0 387.438 66.284" enable-background="new 0 0 387.438 66.284"
	 xml:space="preserve">
<g>
	<defs>
		<rect id="SVGID_1_" y="0" width="387.438" height="66.284"/>
	</defs>
	<clipPath id="SVGID_2_">
		<use xlink:href="#SVGID_1_"  overflow="visible"/>
	</clipPath>
	<path clip-path="url(#SVGID_2_)" fill="#FFFFFF" d="M89.949,36.822c-0.656,3.072,2.436,3.79,4.856,3.442
		c0.9-2.192,2.867-7.908,3.217-8.792C94.271,30.573,90.892,32.415,89.949,36.822"/>
	<polygon clip-path="url(#SVGID_2_)" fill="#FFFFFF" points="114.781,31.186 114.741,31.33 115.028,31.146 	"/>
	<path clip-path="url(#SVGID_2_)" fill="#FFFFFF" d="M190.613,8.442l-0.082-0.573l0.061,0.573c-0.061,0-9.752,1.253-14.691,1.969
		l-1.763,0.245c-0.695,2.151-4.506,13.911-6.147,18.871c-0.204,0.656-0.389,1.23-0.552,1.702c-0.104,0.286-0.144,0.429-0.266,0.655
		l-1.005-0.534l0.165-0.491l0.165-0.471c0.102-0.307,0.224-0.698,0.366-1.148c1.497-4.65,3.997-13.256,4.755-15.939
		c-3.341,0.306-15.613,1.473-17.743,2.067l-0.943,0.247l1.086-4.692l0.82-3.605l-3.669,0.408l-32.413,3.505l-2.092,0.224
		l-0.243,2.09l-0.492,4.446l-1.149,0.083c-2.232-8.238-9.731-9.774-12.622-10.389C100.5,7.358,98.8,7.213,97.06,7.213
		c-2.848,0-5.288,0.432-6.905,0.863l-1.088,0.265l0.287-0.716l-3.975,0.141c-3.34,0.126-7.067,1.148-10.347,2.378l-1.105,0.411
		l0.369-1.127l0.264-0.903l-3.974,0.431l-14.792,1.74l-7.396,22.17l-15.819-0.757l-2.007-0.103l-0.616,1.906
		c-0.963,3.014-3.257,4.773-6.473,4.979H23.01c-1.394,0.062-2.049-0.575-2.212-0.838c-0.534-0.72-0.82-1.866-0.82-3.527
		c0-1.372,0.205-3.092,0.759-5.162c1.249-4.427,4.466-11.145,9.322-12.295l0.614-0.141l0.083,0.635
		c0.02,0.184,0.02,0.409,0.02,0.676c0,0.633-0.081,1.556-0.306,2.827l-0.678,3.565l3.606-0.471l13.339-1.783l1.701-0.225
		l0.491-1.638c0.675-2.317,1.024-4.467,1.024-6.455c0-3.135-0.86-5.798-2.54-8.052C43.438,0.637,36.144-0.02,33.173,0
		c-0.82,0-1.618,0.043-2.417,0.126C16.022,1.682,3.218,14.448,0.412,30.49C0.144,32.069,0,33.605,0,35.122
		c0,5.243,1.641,9.997,4.796,13.748c3.913,4.67,9.752,7.272,16.494,7.272c1.084,0,2.232-0.083,3.359-0.226
		c6.291-0.777,11.639-2.827,15.88-5.92l1.455-1.066l-1.866,5.636l4.262-0.676l14.241-2.254l1.538-0.247l0.51-1.455l5.061-13.831
		c1.967-5.573,5.778-8.727,12.335-10.121l1.168-0.265l-0.513,1.065l-0.06,0.142l-0.081,0.082c-3.976,3.729-6.293,8.812-6.333,14.262
		v0.06c0,2.829,0.942,5.226,2.745,7.048c2.255,2.274,5.901,3.586,10.285,3.586c0.555,0,1.107-0.02,1.642-0.059l0.961-0.062
		l-2.07,4.753l5.103-1.188l14.465-3.382l1.7-0.408l-0.573,3.851l3.382-0.369l30.691-3.32l1.968-0.224l0.329-1.905l1.843-16.863
		l-4.263-0.574l7.869-4.529l-0.308,1.313c-0.615,2.56-0.88,4.752-0.88,6.617c0.04,7.582,4.118,10.184,6.924,11.535l2.03,0.923
		l-2.235,0.164c-0.491,0.04-2.192,0.062-3.975,0.062c-1.434,0-2.888-0.021-3.728-0.021l2.498,16.023
		c1.436,0.163,5.963,0.654,7.317,0.654c4.097,0.021,14.259-0.695,19.771-6.493c4.713-4.898,7.723-13.564,10.595-22.006l0.387-1.106
		c1.659-4.856,6.557-22.867,6.762-23.625l1.024-3.791L190.613,8.442z M113.778,30.53l0.103-0.347l3.77-0.698l0.409,1.045
		l-4.015,2.623l-1.332,0.881l0.472-1.536C113.389,31.822,113.594,31.166,113.778,30.53 M24.322,53.313
		C10.369,55.037,0.574,44.832,2.993,30.942C5.432,17.048,16.474,4.263,31.021,2.726c7.541-0.757,19.731,2.377,15.389,17.048
		l-13.36,1.783c0.818-4.343,0.348-7.601-2.788-7.192c-6.779,0.84-10.755,9.506-12.068,14.322c-1.72,6.474-1.287,13.297,5.473,12.826
		c5.102-0.369,7.722-3.504,8.79-6.781l15.017,0.778C44.504,46.553,34.833,52.024,24.322,53.313 M63.271,35.203l-5.06,13.852
		l-14.24,2.252l12.704-38.19l14.2-1.537l-1.191,3.789c4.447-2.252,10.799-4.793,15.777-4.978l-4.794,12.479
		C70.626,24.221,65.751,28.278,63.271,35.203 M104.803,49.463l-14.506,3.381c0,0,1.374-3.138,2.131-4.877
		c-5.982,2.562-17.621,2.151-17.558-6.699c0.06-6.885,4.199-12.581,10.037-15.491c5.451-2.746,10.983-2.746,14.364-2.09
		c0.123-1.599,0.82-2.847-1.127-3.729c-4.282-1.967-14.138,1.762-14.138,1.762l5-10.552c0,0,5.698-2.254,12.643-0.901
		c4.324,0.901,11.167,2.807,11.167,13.073C112.816,26.535,104.803,49.463,104.803,49.463 M148.138,24.752l-23.152,13.359
		l14.856-2.572l2.887-0.5l-0.111,0.646l-2.327,13.492l-30.693,3.318l2.192-14.73l21.083-13.709l-15.324,2.786l1.494-13.011
		l32.414-3.503L148.138,24.752z M184.219,34.505c-2.909,8.483-5.799,17.397-10.388,22.131c-5.162,5.408-16.144,6.246-22.334,5.408
		c0.082-1.066-2.354-11.107-2.354-11.107c8.133,0.309,13.953-1.289,16.145-5.572c-9.446,1.372-13.606-0.717-15.429-8.79
		c-0.901-3.853,2.725-13.891,4.568-18.646c1.067-0.409,11.701-2.068,13.525-2.068c-1.721,5.163-3.976,10.509-4.57,16.452
		c-0.286,2.848,4.998,4.612,6.722-0.491c2.067-6.229,4.628-12.766,6.167-18.831c4.998-0.696,14.668-1.945,14.668-1.945
		S185.899,29.63,184.219,34.505"/>
	<path clip-path="url(#SVGID_2_)" fill="#FFFFFF" d="M185.876,62.594c-0.519,0-0.979,0.175-1.396,0.538
		c-0.407,0.359-0.652,0.788-0.732,1.284c-0.099,0.592,0,1.055,0.319,1.378c0.308,0.332,0.719,0.489,1.229,0.489
		c0.491,0,0.94-0.157,1.363-0.495c0.424-0.332,0.681-0.78,0.775-1.372c0.087-0.507-0.023-0.934-0.326-1.29
		C186.797,62.767,186.393,62.594,185.876,62.594 M200.775,53.994c-0.438-0.397-0.999-0.724-1.677-0.982
		c-0.685-0.253-1.447-0.377-2.321-0.377c-1.394,0-2.641,0.284-3.753,0.865c-1.1,0.579-2.003,1.395-2.708,2.448
		c-0.706,1.056-1.182,2.275-1.411,3.649c-0.338,2.031-0.025,3.646,0.938,4.855c0.962,1.208,2.476,1.809,4.549,1.809
		c0.977,0,1.87-0.131,2.692-0.394c0.824-0.255,1.522-0.603,2.114-1.036c0.573-0.431,1.025-0.883,1.363-1.357
		c0.322-0.474,0.529-0.92,0.592-1.334c0.06-0.353-0.024-0.69-0.238-1c-0.221-0.313-0.538-0.467-0.946-0.467
		c-0.348,0-0.65,0.11-0.926,0.324c-0.271,0.207-0.537,0.508-0.808,0.885c-0.476,0.636-0.973,1.11-1.512,1.421
		c-0.527,0.312-1.127,0.469-1.798,0.469c-0.499,0-0.945-0.098-1.326-0.289c-0.381-0.192-0.695-0.474-0.926-0.845
		c-0.236-0.378-0.388-0.827-0.449-1.353c-0.069-0.528-0.054-1.111,0.059-1.743c0.216-1.343,0.697-2.397,1.426-3.174
		c0.738-0.769,1.603-1.157,2.588-1.157c0.69,0,1.227,0.156,1.618,0.47c0.397,0.305,0.749,0.775,1.054,1.394
		c0.177,0.32,0.34,0.552,0.502,0.699c0.167,0.14,0.383,0.209,0.661,0.209c0.418,0,0.811-0.139,1.158-0.414
		c0.345-0.28,0.547-0.618,0.614-1.023c0.061-0.386,0-0.809-0.188-1.267C201.528,54.826,201.209,54.392,200.775,53.994
		 M215.369,54.545c-0.489-0.604-1.123-1.076-1.896-1.398c-0.769-0.326-1.662-0.492-2.676-0.492c-0.998,0-1.929,0.166-2.814,0.488
		c-0.88,0.322-1.659,0.785-2.335,1.38c-0.678,0.6-1.24,1.316-1.691,2.159c-0.451,0.845-0.77,1.773-0.937,2.788
		c-0.165,1.009-0.155,1.927,0.013,2.759c0.173,0.832,0.499,1.556,0.994,2.161c0.496,0.612,1.119,1.081,1.876,1.404
		c0.758,0.332,1.638,0.489,2.658,0.489c1.022,0,1.972-0.156,2.839-0.479c0.873-0.327,1.656-0.789,2.338-1.396
		c0.696-0.601,1.259-1.33,1.708-2.174c0.452-0.843,0.761-1.763,0.923-2.764c0.164-1.005,0.16-1.93-0.016-2.76
		C216.191,55.873,215.86,55.154,215.369,54.545 M213.008,59.47c-0.223,1.356-0.696,2.412-1.418,3.175
		c-0.729,0.771-1.606,1.148-2.622,1.148c-0.664,0-1.221-0.173-1.659-0.521c-0.438-0.346-0.735-0.854-0.895-1.502
		c-0.159-0.659-0.165-1.425-0.019-2.301c0.145-0.882,0.406-1.654,0.784-2.321c0.378-0.656,0.848-1.163,1.399-1.506
		c0.554-0.335,1.157-0.504,1.808-0.504c1.017,0,1.767,0.378,2.242,1.136C213.101,57.043,213.233,58.107,213.008,59.47
		 M237.076,53.22c-0.601-0.359-1.36-0.545-2.273-0.545c-0.786,0-1.53,0.172-2.231,0.501c-0.692,0.336-1.389,0.845-2.058,1.531
		c-0.28-0.681-0.696-1.188-1.248-1.522c-0.555-0.338-1.251-0.51-2.096-0.51c-0.812,0-1.563,0.168-2.284,0.497
		c-0.716,0.327-1.417,0.836-2.113,1.535l0.057-0.317c0.085-0.545,0-0.966-0.264-1.27c-0.249-0.31-0.6-0.466-1.067-0.466
		c-0.473,0-0.878,0.166-1.222,0.492c-0.351,0.322-0.567,0.804-0.671,1.436l-1.562,9.594c-0.116,0.691-0.038,1.219,0.229,1.575
		c0.266,0.355,0.656,0.532,1.16,0.532c0.515,0,0.956-0.177,1.331-0.532c0.377-0.356,0.615-0.884,0.731-1.575l0.734-4.53
		c0.234-1.414,0.584-2.49,1.05-3.247c0.468-0.751,1.245-1.124,2.344-1.124c0.547,0,0.926,0.146,1.137,0.449
		c0.202,0.294,0.295,0.675,0.272,1.142c-0.015,0.469-0.086,1.121-0.224,1.971l-0.863,5.34c-0.117,0.708-0.05,1.234,0.214,1.583
		c0.254,0.354,0.636,0.524,1.145,0.524c0.521,0,0.972-0.171,1.35-0.524c0.373-0.349,0.623-0.875,0.731-1.583l0.721-4.457
		c0.235-1.43,0.521-2.431,0.852-2.999c0.295-0.445,0.657-0.787,1.096-1.055c0.447-0.263,0.885-0.391,1.327-0.391
		c0.545,0,0.932,0.141,1.153,0.438c0.219,0.295,0.324,0.655,0.32,1.094c-0.007,0.437-0.069,1.009-0.186,1.73l-0.91,5.639
		c-0.111,0.691-0.033,1.219,0.233,1.575c0.263,0.355,0.653,0.532,1.158,0.532c0.525,0,0.974-0.171,1.353-0.524
		c0.375-0.349,0.62-0.875,0.73-1.583l1.049-6.544c0.215-1.304,0.226-2.256,0.033-2.867C238.092,54.101,237.681,53.583,237.076,53.22
		"/>
	<path clip-path="url(#SVGID_2_)" fill="#FFFFFF" d="M221.951,9.752c-1.019,0-1.858,0.353-2.523,1.06
		c-0.676,0.705-1.134,1.742-1.382,3.122l-1.773,9.909c-1.006-1.379-2.112-2.395-3.314-3.059c-1.198-0.668-2.762-0.997-4.687-0.997
		c-3.323,0-6.22,1.174-8.679,3.522c-2.472,2.337-4.079,5.611-4.834,9.804c-0.362,1.988-0.44,3.833-0.244,5.541
		c0.209,1.703,0.698,3.188,1.462,4.451c0.77,1.258,1.773,2.237,3.022,2.916c1.237,0.678,2.663,1.014,4.268,1.014
		c1.21,0,2.353-0.165,3.44-0.505c1.08-0.335,2.115-0.824,3.107-1.471c0.994-0.647,2.032-1.492,3.11-2.519l-0.116,0.657
		c-0.222,1.231-0.091,2.185,0.388,2.843c0.478,0.666,1.179,0.994,2.094,0.994c0.925,0,1.747-0.313,2.45-0.956
		c0.704-0.642,1.169-1.596,1.396-2.881l5.278-29.612c0.225-1.259,0.118-2.214-0.31-2.865C223.67,10.081,222.961,9.752,221.951,9.752
		 M214.213,33.336c-0.346,1.906-0.929,3.492-1.73,4.762c-0.801,1.271-1.754,2.211-2.839,2.828c-1.081,0.618-2.211,0.924-3.386,0.924
		c-1.157,0-2.168-0.328-3.033-0.976c-0.863-0.642-1.461-1.611-1.794-2.888c-0.335-1.275-0.335-2.829-0.009-4.65
		c0.313-1.716,0.852-3.229,1.613-4.541c0,0,0.902-1.762,2.777-2.997c1.082-0.711,2.252-1.043,3.475-1.043
		c1.171,0,2.186,0.338,3.06,1.021c0.86,0.676,1.472,1.662,1.821,2.953C214.508,30.014,214.532,31.552,214.213,33.336 M249.38,23.523
		c-0.965-1.21-2.212-2.148-3.748-2.799c-1.532-0.656-3.305-0.99-5.325-0.99c-1.987,0-3.865,0.327-5.622,0.976
		c-1.761,0.642-3.329,1.57-4.703,2.765c-1.367,1.199-2.512,2.64-3.427,4.329c-0.925,1.692-1.562,3.551-1.924,5.585
		c-0.355,2.015-0.383,3.859-0.062,5.522c0.321,1.662,0.959,3.107,1.925,4.324c0.976,1.226,2.212,2.159,3.715,2.817
		c1.502,0.656,3.268,0.981,5.297,0.981c2.046,0,3.945-0.318,5.684-0.965c1.76-0.658,3.324-1.583,4.713-2.796
		c1.384-1.215,2.546-2.668,3.455-4.354c0.92-1.686,1.552-3.533,1.903-5.531c0.349-2.014,0.368-3.862,0.038-5.534
		C250.979,26.181,250.341,24.738,249.38,23.523 M244.543,33.389c-0.477,2.701-1.439,4.825-2.915,6.355
		c-1.47,1.532-3.218,2.302-5.244,2.302c-1.341,0-2.451-0.348-3.312-1.049c-0.861-0.696-1.444-1.699-1.745-3.011
		c-0.3-1.307-0.295-2.847,0.016-4.598c0.311-1.769,0.854-3.323,1.627-4.651c0.771-1.327,1.719-2.332,2.834-3.011
		c1.11-0.679,2.327-1.022,3.628-1.022c2.023,0,3.501,0.762,4.433,2.29C244.798,28.52,245.022,30.649,244.543,33.389 M291.334,20.863
		c-1.199-0.714-2.705-1.076-4.536-1.076c-1.563,0-3.054,0.329-4.448,0.997c-1.404,0.664-2.779,1.68-4.14,3.059
		c-0.555-1.366-1.372-2.373-2.469-3.048c-1.089-0.674-2.474-1.008-4.152-1.008c-1.616,0-3.136,0.325-4.569,0.983
		c-1.433,0.653-2.847,1.681-4.25,3.073l0.109-0.636c0.188-1.086,0.025-1.93-0.473-2.544c-0.506-0.617-1.218-0.929-2.13-0.929
		c-0.944,0-1.763,0.334-2.459,0.99c-0.69,0.651-1.144,1.616-1.362,2.874l-3.338,19.209c-0.238,1.396-0.1,2.452,0.428,3.157
		c0.519,0.715,1.288,1.07,2.299,1.07c1.032,0,1.926-0.355,2.675-1.07c0.754-0.705,1.254-1.762,1.491-3.157l1.567-9.071
		c0.487-2.824,1.208-4.989,2.161-6.496c0.953-1.508,2.532-2.264,4.708-2.264c1.098,0,1.844,0.3,2.249,0.892
		c0.398,0.607,0.58,1.372,0.531,2.305c-0.047,0.938-0.216,2.248-0.503,3.94l-1.838,10.694c-0.245,1.41-0.109,2.467,0.405,3.172
		c0.507,0.7,1.269,1.056,2.279,1.056c1.053,0,1.952-0.355,2.706-1.056c0.764-0.705,1.264-1.762,1.503-3.172l1.521-8.926
		c0.489-2.871,1.074-4.867,1.762-6.003c0.595-0.883,1.327-1.589,2.212-2.115c0.875-0.525,1.758-0.787,2.634-0.787
		c1.101,0,1.864,0.297,2.304,0.887c0.438,0.59,0.638,1.324,0.611,2.192c-0.018,0.865-0.155,2.024-0.397,3.464l-1.914,11.288
		c-0.239,1.396-0.096,2.452,0.431,3.157c0.527,0.715,1.289,1.07,2.312,1.07c1.04,0,1.944-0.355,2.701-1.056
		c0.754-0.705,1.254-1.762,1.495-3.172l2.211-13.111c0.439-2.603,0.473-4.511,0.108-5.729
		C293.344,22.625,292.536,21.589,291.334,20.863 M318.342,20.732c-1.562-0.696-3.811-1.04-6.747-1.04
		c-2.621,0-4.874,0.354-6.754,1.078c-1.881,0.72-3.331,1.636-4.352,2.753c-1.023,1.122-1.627,2.267-1.822,3.45
		c-0.13,0.746,0.036,1.366,0.506,1.85c0.467,0.487,1.069,0.729,1.828,0.729c0.824,0,1.396-0.154,1.699-0.459
		c0.306-0.297,0.837-0.928,1.617-1.88c0.769-0.947,1.621-1.663,2.557-2.139s2.252-0.72,3.946-0.72c1.975,0,3.209,0.422,3.698,1.249
		s0.631,2.131,0.417,3.901c-1.478,0.408-2.828,0.757-4.07,1.049c-1.261,0.283-2.751,0.597-4.488,0.938
		c-1.739,0.351-2.832,0.568-3.271,0.671c-2.101,0.441-3.835,1.307-5.214,2.601c-1.374,1.298-2.219,2.868-2.53,4.701
		c-0.227,1.363-0.085,2.622,0.421,3.787c0.508,1.165,1.353,2.091,2.539,2.77c1.185,0.678,2.641,1.014,4.357,1.014
		c1.885,0,3.627-0.313,5.246-0.943c1.619-0.633,3.346-1.579,5.176-2.84c0.545,1.231,1.1,2.16,1.665,2.818
		c0.562,0.646,1.19,0.965,1.878,0.965c0.812,0,1.591-0.279,2.333-0.846c0.738-0.564,1.16-1.189,1.276-1.884
		c0.064-0.387,0-1.276-0.186-2.642c-0.192-1.371-0.188-2.686,0.019-3.943c0.241-1.353,0.461-2.57,0.645-3.669
		c0.189-1.098,0.411-2.431,0.671-4.008c0.414-2.493,0.399-4.493-0.046-6C320.917,22.533,319.911,21.433,318.342,20.732
		 M314.108,34.492c-0.391,2.332-0.969,4.004-1.735,5.021c-0.679,0.92-1.627,1.667-2.84,2.252c-1.223,0.578-2.491,0.874-3.808,0.874
		c-1.248,0-2.198-0.36-2.838-1.071c-0.657-0.714-0.894-1.579-0.722-2.597c0.164-0.983,0.615-1.748,1.364-2.297
		c0.745-0.553,1.487-0.921,2.241-1.112c0.747-0.182,2.093-0.482,4.035-0.883c1.931-0.4,3.419-0.784,4.458-1.143L314.108,34.492z
		 M333.341,10.731c-0.889,0-1.729,0.308-2.497,0.925c-0.781,0.618-1.25,1.4-1.404,2.348c-0.171,1.049,0.025,1.863,0.59,2.434
		c0.568,0.574,1.313,0.865,2.241,0.865c0.898,0,1.72-0.296,2.464-0.876c0.747-0.582,1.203-1.392,1.372-2.423
		c0.176-1.067-0.021-1.876-0.604-2.433C334.934,11.011,334.211,10.731,333.341,10.731 M331.687,19.734
		c-0.982,0-1.826,0.342-2.552,1.013c-0.716,0.673-1.188,1.672-1.407,2.998l-3.152,19.211c-0.216,1.312-0.068,2.317,0.423,3.022
		c0.503,0.7,1.236,1.056,2.221,1.056c0.979,0,1.85-0.342,2.594-1.032c0.752-0.688,1.236-1.701,1.457-3.046l3.168-19.411
		c0.193-1.191,0.027-2.126-0.498-2.799C333.419,20.076,332.665,19.734,331.687,19.734 M359.434,20.893
		c-1.266-0.772-2.776-1.159-4.531-1.159c-1.814,0-3.472,0.369-4.984,1.098c-1.514,0.727-2.98,1.868-4.405,3.428l0.131-0.807
		c0.134-0.807,0.091-1.483-0.1-2.043c-0.195-0.555-0.509-0.978-0.937-1.251c-0.424-0.282-0.933-0.425-1.52-0.425
		c-0.961,0-1.774,0.32-2.429,0.952c-0.653,0.631-1.091,1.587-1.298,2.86l-3.15,19.411c-0.213,1.312-0.066,2.317,0.445,3.022
		c0.504,0.7,1.238,1.056,2.209,1.056c0.996,0,1.868-0.336,2.6-1.014c0.739-0.679,1.223-1.707,1.442-3.064l1.36-8.411
		c0.438-2.739,0.903-4.61,1.399-5.606c0.649-1.248,1.53-2.233,2.625-2.945c1.096-0.711,2.233-1.064,3.426-1.064
		c1.823,0,2.953,0.585,3.377,1.754c0.418,1.171,0.454,2.868,0.098,5.077l-1.793,11.195c-0.207,1.312-0.055,2.317,0.449,3.022
		c0.512,0.7,1.264,1.056,2.262,1.056c0.983,0,1.835-0.342,2.558-1.032c0.721-0.688,1.191-1.701,1.404-3.046l1.991-12.498
		c0.235-1.472,0.364-2.685,0.384-3.638c0.018-0.953-0.124-1.836-0.429-2.658C361.558,22.751,360.688,21.664,359.434,20.893
		 M373.627,24.794c0.875-0.52,1.923-0.78,3.127-0.78c1.172,0,2.076,0.2,2.692,0.593c0.625,0.394,1.144,0.921,1.546,1.574
		c0.497,0.792,0.953,1.374,1.374,1.77c0.413,0.396,0.969,0.595,1.656,0.595c0.946,0,1.714-0.248,2.308-0.742
		c0.589-0.491,0.948-1.12,1.069-1.894c0.108-0.698-0.018-1.427-0.387-2.165c-0.367-0.734-0.96-1.405-1.792-2.015
		c-0.822-0.605-1.896-1.089-3.225-1.449c-1.317-0.361-2.837-0.547-4.569-0.547c-2.201,0-4.131,0.365-5.797,1.076
		c-1.677,0.714-3.011,1.667-3.992,2.864c-0.992,1.191-1.586,2.467-1.799,3.81c-0.243,1.511-0.012,2.784,0.685,3.811
		c0.702,1.036,1.73,1.865,3.074,2.501c1.341,0.625,3.124,1.232,5.333,1.807c1.966,0.487,3.353,1.005,4.163,1.547
		c0.8,0.544,1.114,1.406,0.925,2.584c-0.121,0.774-0.655,1.455-1.611,2.056c-0.955,0.6-2.095,0.895-3.432,0.895
		c-1.654,0-2.915-0.295-3.779-0.885c-0.859-0.587-1.536-1.485-2.039-2.679c-0.246-0.625-0.525-1.106-0.847-1.454
		c-0.322-0.343-0.829-0.517-1.538-0.517c-0.801,0-1.499,0.265-2.11,0.789c-0.606,0.521-0.961,1.155-1.08,1.894
		c-0.176,1.113,0.057,2.225,0.691,3.334c0.646,1.104,1.771,2.023,3.367,2.761c1.604,0.744,3.604,1.107,6.004,1.107
		c2.527,0,4.715-0.336,6.583-1.014c1.863-0.679,3.347-1.683,4.453-3.006c1.104-1.316,1.801-2.905,2.089-4.757
		c0.196-1.234,0.027-2.328-0.507-3.287c-0.528-0.955-1.389-1.785-2.593-2.494c-1.212-0.706-2.805-1.314-4.802-1.818
		c-1.679-0.424-2.991-0.789-3.94-1.082c-0.952-0.292-1.685-0.665-2.199-1.119c-0.511-0.454-0.716-1.027-0.604-1.738
		C372.245,25.948,372.746,25.308,373.627,24.794"/>
</g>
</svg>