<svg width="193" height="219" viewBox="0 0 193 219" fill="none" xmlns="http://www.w3.org/2000/svg">
<path d="M22 105C22 93.9543 30.9543 85 42 85H81C92.0457 85 101 93.9543 101 105V118C101 129.046 92.0457 138 81 138H42C30.9543 138 22 129.046 22 118V105Z" fill="#040816"/>
<path d="M44.3388 218.182H83.9489C85.1406 218.182 86.3239 218.169 87.4986 218.144L61.7605 169.605H44.3388V218.182Z" fill="#040816"/>
<path d="M0 45V0H83.0966C105.54 0 124.929 4.3679 141.264 13.1037C157.67 21.7685 170.312 34.2685 179.19 50.6037C188.139 66.8679 192.614 86.3636 192.614 109.091C192.614 131.818 188.175 151.349 179.297 167.685C170.419 183.949 157.848 196.449 141.584 205.185C139.882 206.091 138.148 206.95 136.382 207.762L111.376 161.709C111.76 161.505 112.138 161.293 112.511 161.075C121.576 156.481 128.729 150.091 133.971 141.905C139.886 132.763 142.843 121.531 142.843 108.211C142.843 95.0117 139.976 83.6895 134.242 74.2441C128.508 64.7988 120.481 57.5635 110.159 52.5381C99.8382 47.5127 87.7967 45 74.035 45H0Z" fill="#040816"/>
<path d="M59.233 85.3242H44.3388V130.371H59.233V85.3242Z" fill="#040816"/>
</svg>
