<svg width="4526" height="1389" viewBox="0 0 4526 1389" fill="none" xmlns="http://www.w3.org/2000/svg">
<path d="M371.875 1005V433.906H492.969V905H724.609V1005H371.875ZM1153.12 1005H824.219V433.906H1153.12V533.125H945.312V658.516H1138.67V757.734H945.312V905H1153.12V1005ZM1489.45 684.297H1716.02V980.391C1686.07 990.286 1654.95 998.229 1622.66 1004.22C1590.36 1009.95 1553.78 1012.81 1512.89 1012.81C1456.12 1012.81 1407.94 1001.61 1368.36 979.219C1328.78 956.823 1298.7 923.75 1278.12 880C1257.55 836.25 1247.27 782.474 1247.27 718.672C1247.27 658.776 1258.72 606.953 1281.64 563.203C1304.82 519.453 1338.54 485.599 1382.81 461.641C1427.34 437.682 1481.64 425.703 1545.7 425.703C1575.91 425.703 1605.73 428.958 1635.16 435.469C1664.58 441.979 1691.28 450.443 1715.23 460.859L1675 557.734C1657.55 548.88 1637.63 541.458 1615.23 535.469C1592.84 529.479 1569.4 526.484 1544.92 526.484C1509.77 526.484 1479.17 534.557 1453.12 550.703C1427.34 566.849 1407.29 589.505 1392.97 618.672C1378.91 647.578 1371.88 681.693 1371.88 721.016C1371.88 758.255 1376.95 791.328 1387.11 820.234C1397.27 848.88 1413.28 871.406 1435.16 887.812C1457.03 903.958 1485.55 912.031 1520.7 912.031C1537.89 912.031 1552.34 911.25 1564.06 909.688C1576.04 907.865 1587.24 906.042 1597.66 904.219V785.078H1489.45V684.297ZM2201.95 1005L2160.55 869.062H1952.34L1910.94 1005H1780.47L1982.03 431.562H2130.08L2332.42 1005H2201.95ZM2131.64 767.5L2090.23 634.688C2087.63 625.833 2084.11 614.505 2079.69 600.703C2075.52 586.641 2071.22 572.448 2066.8 558.125C2062.63 543.542 2059.24 530.911 2056.64 520.234C2054.04 530.911 2050.39 544.193 2045.7 560.078C2041.28 575.703 2036.98 590.547 2032.81 604.609C2028.65 618.672 2025.65 628.698 2023.83 634.688L1982.81 767.5H2131.64ZM2404.69 1005V433.906H2525.78V905H2757.42V1005H2404.69Z" fill="white"/>
<path d="M3282.09 1005H3241.08L2903.58 499.922H2901.62C2902.15 513.984 2902.54 528.307 2902.8 542.891C2903.32 557.214 2903.71 572.057 2903.97 587.422C2904.49 602.526 2904.75 618.151 2904.75 634.297V1005H2866.47V433.906H2907.88L3244.2 937.422H3246.16C3245.9 925.964 3245.51 912.682 3244.98 897.578C3244.72 882.474 3244.33 866.979 3243.81 851.094C3243.55 835.208 3243.42 820.234 3243.42 806.172V433.906H3282.09V1005ZM3755.92 1005H3443.81V433.906H3755.92V470.234H3484.05V686.641H3740.69V722.969H3484.05V968.672H3755.92V1005ZM4035.22 1005H3994.59V470.234H3809.44V433.906H4220.38V470.234H4035.22V1005Z" fill="white"/>
</svg>
