<svg width="128" height="32" viewBox="0 0 128 32" fill="none" xmlns="http://www.w3.org/2000/svg">
<path d="M121.479 1.40881H124.636C125.462 1.40881 126.17 1.70381 126.73 2.2938C127.32 2.8838 127.615 3.59179 127.615 4.38828V6.21726H121.479V1.40881Z" fill="white"/>
<path d="M42.273 1.40881H39.1166V31.5574H45.2525V4.29978C45.2525 3.47379 44.9575 2.7953 44.3675 2.2348C43.7775 1.67431 43.0695 1.40881 42.273 1.40881Z" fill="white"/>
<path d="M58.5273 7.7218C55.1939 7.7218 52.5979 8.81329 50.7099 10.9668C48.9105 13.0612 47.996 15.9817 47.996 19.7282C47.996 23.6516 48.94 26.6606 50.7984 28.755C52.6569 30.9085 55.2824 32 58.6158 32C61.3593 32 63.6308 31.3215 65.4598 29.994C67.2592 28.696 68.4982 26.8376 69.1472 24.3891H64.7518C64.0438 24.3891 63.5128 24.5366 63.1293 24.8316C62.7458 25.1266 62.5393 25.3626 62.4803 25.5396C62.3033 25.7166 62.1558 25.8641 62.0083 26.0116C61.8608 26.1591 61.7133 26.2476 61.5363 26.3066C60.8283 26.7196 59.9728 26.9261 58.9993 26.9261C57.4654 26.9261 56.3444 26.4541 55.5774 25.5101C54.7514 24.6251 54.3089 23.2976 54.2499 21.4686H69.4127C69.4717 21.3506 69.5012 21.1441 69.5012 20.8491C69.5012 20.7901 69.5012 20.6721 69.5012 20.4951C69.5012 20.3181 69.5012 20.1116 69.5012 19.8757C69.5012 16.0112 68.5572 13.0022 66.6988 10.8488C64.7518 8.78379 62.0378 7.7218 58.5273 7.7218ZM54.2499 17.5452C54.3089 16.0112 54.7514 14.8607 55.5774 14.0347C56.4034 13.2087 57.4359 12.7957 58.7338 12.7957C60.1498 12.7957 61.2118 13.2087 61.9788 14.0347C62.6868 14.8017 63.0998 15.9522 63.2178 17.5452H54.2499Z" fill="white"/>
<path d="M89.7969 9.72778C87.6434 8.37079 85.254 7.7218 82.6875 7.7218C80.18 7.8398 77.8791 8.57729 75.8141 9.90478C73.7491 11.2618 72.6871 13.9167 72.6871 17.8697V31.5575H78.8231V16.6602C78.8231 15.2442 79.236 14.2412 80.062 13.5922C80.888 12.9432 81.8025 12.6187 82.8645 12.6187C83.9265 12.6187 84.8705 12.9432 85.726 13.5922C86.5815 14.2412 86.9944 15.2442 86.9944 16.6602V28.5781C86.9944 29.463 87.26 30.171 87.8204 30.7315C88.3809 31.292 89.0889 31.5575 89.9739 31.5575H93.0419V17.8992C93.0419 13.7987 91.9504 11.0848 89.7969 9.72778Z" fill="white"/>
<path d="M114.665 1.32043H111.686V11.3208C110.978 10.1998 110.063 9.31484 108.883 8.60684C107.762 8.01685 106.494 7.72185 105.019 7.72185C102.275 7.72185 100.033 8.87234 98.2633 11.1438C96.5818 13.3563 95.7263 16.3062 95.7263 19.9937C95.7263 23.7402 96.5818 26.6901 98.2633 28.8436C99.1483 29.9646 100.299 30.7611 101.774 31.2626C103.249 31.7641 104.724 32.0001 106.258 32.0001C109.06 32.0001 111.656 31.2626 114.075 29.8171C116.465 28.3421 117.674 25.5396 117.674 21.4097V4.2999C117.674 3.53291 117.379 2.85442 116.789 2.23492C116.17 1.61543 115.491 1.32043 114.665 1.32043ZM110.447 25.0676C109.562 26.3066 108.352 26.8966 106.759 26.8966C105.137 26.8966 103.868 26.2771 102.983 25.0676C102.098 23.8287 101.656 22.0587 101.656 19.7282C101.656 17.6337 102.098 15.9818 102.983 14.8313C103.868 13.5923 105.048 13.0023 106.582 13.0023C108.146 13.0023 109.414 13.5923 110.358 14.7428C111.243 15.9818 111.686 17.6337 111.686 19.7282C111.686 22.0587 111.273 23.8582 110.447 25.0676Z" fill="white"/>
<path d="M126.73 9.1378C126.14 8.5478 125.432 8.25281 124.636 8.25281H121.479V31.5575H127.615V11.2028C127.615 10.4063 127.32 9.69829 126.73 9.1378Z" fill="white"/>
<path d="M31.3581 9.37377L18.0833 0.494382C17.1393 -0.15461 15.9298 -0.15461 14.9858 0.435383L1.26848 9.34427C0.471994 9.87527 0 10.7603 0 11.7042V29.1975C0 30.761 1.26848 32 2.80247 32H29.7946C31.3581 32 32.5971 30.7315 32.5971 29.1975V11.7042C32.5971 10.7603 32.1251 9.87527 31.3581 9.37377ZM26.9922 26.3951H19.1158V18.2237H13.5108V26.3951H5.60493V13.2087L16.4903 6.15831L26.9922 13.1792V26.3951Z" fill="white"/>
</svg>
